<svg xmlns="http://www.w3.org/2000/svg" viewBox="0 0 860 400" font-family="Segoe UI,system-ui,sans-serif">
  <defs>
    <filter id="sh" x="-3%" y="-3%" width="108%" height="108%"><feDropShadow dx="1" dy="2" stdDeviation="2" flood-opacity="0.1"/></filter>
    <marker id="arr7" markerWidth="8" markerHeight="6" refX="7" refY="3" orient="auto"><polygon points="0 0,8 3,0 6" fill="#64748b"/></marker>
  </defs>
  <rect width="860" height="400" rx="16" fill="#fafbff" stroke="#e2e8f0" stroke-width="1.5"/>
  <text x="430" y="32" text-anchor="middle" font-size="18" font-weight="700" fill="#1e293b">LoRA vs Other PEFT Methods: Comparison Table</text>

  <rect x="30" y="55" width="800" height="35" rx="8" fill="#6366f1"/>
  <text x="125" y="78" text-anchor="middle" font-size="11" font-weight="700" fill="white">Method</text>
  <text x="250" y="78" text-anchor="middle" font-size="11" font-weight="700" fill="white">Trainable %</text>
  <text x="365" y="78" text-anchor="middle" font-size="11" font-weight="700" fill="white">Inference</text>
  <text x="475" y="78" text-anchor="middle" font-size="11" font-weight="700" fill="white">Mergeable</text>
  <text x="570" y="78" text-anchor="middle" font-size="11" font-weight="700" fill="white">Quality</text>
  <text x="670" y="78" text-anchor="middle" font-size="11" font-weight="700" fill="white">Memory</text>
  <text x="775" y="78" text-anchor="middle" font-size="11" font-weight="700" fill="white">Multi-Task</text>

  <rect x="30" y="92" width="800" height="38" rx="0" fill="#f0fdf4" stroke="#16a34a" stroke-width="1.5"/>
  <text x="125" y="116" text-anchor="middle" font-size="11" font-weight="700" fill="#15803d">LoRA</text>
  <text x="250" y="116" text-anchor="middle" font-size="10" fill="#15803d">0.01-1%</text>
  <text x="365" y="116" text-anchor="middle" font-size="10" fill="#15803d" font-weight="600">Zero overhead</text>
  <text x="475" y="116" text-anchor="middle" font-size="14" fill="#16a34a">&#10003;</text>
  <rect x="538" y="104" width="65" height="16" rx="8" fill="#16a34a"/>
  <text x="570" y="116" text-anchor="middle" font-size="9" font-weight="700" fill="white">Excellent</text>
  <rect x="645" y="104" width="50" height="16" rx="8" fill="#16a34a"/>
  <text x="670" y="116" text-anchor="middle" font-size="9" font-weight="700" fill="white">Low</text>
  <rect x="738" y="104" width="75" height="16" rx="8" fill="#16a34a"/>
  <text x="775" y="116" text-anchor="middle" font-size="9" font-weight="700" fill="white">Excellent</text>

  <rect x="30" y="132" width="800" height="35" rx="0" fill="#fefce8"/>
  <text x="125" y="154" text-anchor="middle" font-size="11" font-weight="600" fill="#b45309">QLoRA</text>
  <text x="250" y="154" text-anchor="middle" font-size="10" fill="#475569">0.01-1%</text>
  <text x="365" y="154" text-anchor="middle" font-size="10" fill="#475569">Zero overhead</text>
  <text x="475" y="154" text-anchor="middle" font-size="14" fill="#16a34a">&#10003;</text>
  <rect x="538" y="143" width="65" height="16" rx="8" fill="#16a34a"/>
  <text x="570" y="155" text-anchor="middle" font-size="9" font-weight="700" fill="white">Excellent</text>
  <rect x="640" y="143" width="60" height="16" rx="8" fill="#16a34a"/>
  <text x="670" y="155" text-anchor="middle" font-size="9" font-weight="700" fill="white">Minimal</text>
  <rect x="738" y="143" width="75" height="16" rx="8" fill="#22c55e"/>
  <text x="775" y="155" text-anchor="middle" font-size="9" font-weight="700" fill="white">Great</text>

  <rect x="30" y="169" width="800" height="35" rx="0" fill="white"/>
  <text x="125" y="191" text-anchor="middle" font-size="11" font-weight="600" fill="#475569">Prefix Tuning</text>
  <text x="250" y="191" text-anchor="middle" font-size="10" fill="#475569">0.01-0.1%</text>
  <text x="365" y="191" text-anchor="middle" font-size="10" fill="#dc2626">Slight overhead</text>
  <text x="475" y="191" text-anchor="middle" font-size="14" fill="#dc2626">&#10007;</text>
  <rect x="543" y="180" width="55" height="16" rx="8" fill="#f59e0b"/>
  <text x="570" y="192" text-anchor="middle" font-size="9" font-weight="700" fill="white">Good</text>
  <rect x="643" y="180" width="55" height="16" rx="8" fill="#22c55e"/>
  <text x="670" y="192" text-anchor="middle" font-size="9" font-weight="700" fill="white">Low</text>
  <rect x="743" y="180" width="65" height="16" rx="8" fill="#eab308"/>
  <text x="775" y="192" text-anchor="middle" font-size="9" font-weight="700" fill="white">Medium</text>

  <rect x="30" y="206" width="800" height="35" rx="0" fill="#f8fafc"/>
  <text x="125" y="228" text-anchor="middle" font-size="11" font-weight="600" fill="#475569">Adapters</text>
  <text x="250" y="228" text-anchor="middle" font-size="10" fill="#475569">0.5-3%</text>
  <text x="365" y="228" text-anchor="middle" font-size="10" fill="#dc2626">+10-30% latency</text>
  <text x="475" y="228" text-anchor="middle" font-size="14" fill="#dc2626">&#10007;</text>
  <rect x="538" y="217" width="65" height="16" rx="8" fill="#22c55e"/>
  <text x="570" y="229" text-anchor="middle" font-size="9" font-weight="700" fill="white">V. Good</text>
  <rect x="640" y="217" width="60" height="16" rx="8" fill="#eab308"/>
  <text x="670" y="229" text-anchor="middle" font-size="9" font-weight="700" fill="white">Medium</text>
  <rect x="743" y="217" width="65" height="16" rx="8" fill="#dc2626"/>
  <text x="775" y="229" text-anchor="middle" font-size="9" font-weight="700" fill="white">Poor</text>

  <rect x="30" y="243" width="800" height="35" rx="0" fill="white"/>
  <text x="125" y="265" text-anchor="middle" font-size="11" font-weight="600" fill="#475569">BitFit</text>
  <text x="250" y="265" text-anchor="middle" font-size="10" fill="#475569">0.03-0.05%</text>
  <text x="365" y="265" text-anchor="middle" font-size="10" fill="#16a34a">Zero overhead</text>
  <text x="475" y="265" text-anchor="middle" font-size="14" fill="#dc2626">&#10007;</text>
  <rect x="543" y="254" width="55" height="16" rx="8" fill="#f59e0b"/>
  <text x="570" y="266" text-anchor="middle" font-size="9" font-weight="700" fill="white">Fair</text>
  <rect x="643" y="254" width="55" height="16" rx="8" fill="#16a34a"/>
  <text x="670" y="266" text-anchor="middle" font-size="9" font-weight="700" fill="white">Low</text>
  <rect x="743" y="254" width="65" height="16" rx="8" fill="#dc2626"/>
  <text x="775" y="266" text-anchor="middle" font-size="9" font-weight="700" fill="white">Poor</text>

  <rect x="30" y="280" width="800" height="35" rx="0" fill="#f8fafc"/>
  <text x="125" y="302" text-anchor="middle" font-size="11" font-weight="600" fill="#475569">IA&#8323;</text>
  <text x="250" y="302" text-anchor="middle" font-size="10" fill="#475569">0.01%</text>
  <text x="365" y="302" text-anchor="middle" font-size="10" fill="#16a34a">Zero overhead</text>
  <text x="475" y="302" text-anchor="middle" font-size="14" fill="#16a34a">&#10003;</text>
  <rect x="543" y="291" width="55" height="16" rx="8" fill="#f59e0b"/>
  <text x="570" y="303" text-anchor="middle" font-size="9" font-weight="700" fill="white">Good</text>
  <rect x="640" y="291" width="60" height="16" rx="8" fill="#16a34a"/>
  <text x="670" y="303" text-anchor="middle" font-size="9" font-weight="700" fill="white">Minimal</text>
  <rect x="743" y="291" width="65" height="16" rx="8" fill="#eab308"/>
  <text x="775" y="303" text-anchor="middle" font-size="9" font-weight="700" fill="white">Medium</text>

  <rect x="30" y="317" width="800" height="35" rx="0" fill="#fef2f2"/>
  <text x="125" y="339" text-anchor="middle" font-size="11" font-weight="600" fill="#dc2626">Full Fine-Tune</text>
  <text x="250" y="339" text-anchor="middle" font-size="10" fill="#dc2626">100%</text>
  <text x="365" y="339" text-anchor="middle" font-size="10" fill="#16a34a">Zero overhead</text>
  <text x="475" y="339" text-anchor="middle" font-size="10" fill="#94a3b8">N/A</text>
  <rect x="538" y="328" width="65" height="16" rx="8" fill="#16a34a"/>
  <text x="570" y="340" text-anchor="middle" font-size="9" font-weight="700" fill="white">Best</text>
  <rect x="640" y="328" width="60" height="16" rx="8" fill="#dc2626"/>
  <text x="670" y="340" text-anchor="middle" font-size="9" font-weight="700" fill="white">Huge</text>
  <rect x="743" y="328" width="65" height="16" rx="8" fill="#dc2626"/>
  <text x="775" y="340" text-anchor="middle" font-size="9" font-weight="700" fill="white">None</text>

  <rect x="190" y="365" width="480" height="30" rx="15" fill="#16a34a" filter="url(#sh)"/>
  <text x="430" y="385" text-anchor="middle" font-size="12" font-weight="700" fill="white">LoRA: Best balance of quality, efficiency, and flexibility</text>
</svg>