<svg xmlns="http://www.w3.org/2000/svg" viewBox="0 0 860 340" font-family="Segoe UI,system-ui,sans-serif">
  <defs>
    <filter id="sh" x="-3%" y="-3%" width="108%" height="108%"><feDropShadow dx="1" dy="2" stdDeviation="2" flood-opacity="0.1"/></filter>
    <marker id="arr" markerWidth="8" markerHeight="6" refX="7" refY="3" orient="auto"><polygon points="0 0,8 3,0 6" fill="#64748b"/></marker>
  </defs>
  <rect width="860" height="340" rx="16" fill="#fafbff" stroke="#e2e8f0" stroke-width="1.5"/>
  <text x="430" y="32" text-anchor="middle" font-size="18" font-weight="700" fill="#1e293b">LoRA Parameter Savings: Full W vs Low-Rank B &#215; A</text>

  <text x="140" y="68" text-anchor="middle" font-size="13" font-weight="700" fill="#dc2626">Full Fine-Tuning: &#916;W</text>
  <rect x="40" y="80" width="200" height="200" rx="4" fill="#fee2e2" stroke="#dc2626" stroke-width="2" filter="url(#sh)"/>
  <g stroke="#fca5a5" stroke-width="0.4">
    <line x1="40" y1="100" x2="240" y2="100"/>
    <line x1="40" y1="160" x2="240" y2="160"/>
    <line x1="40" y1="220" x2="240" y2="220"/>
    <line x1="80" y1="80" x2="80" y2="280"/>
    <line x1="140" y1="80" x2="140" y2="280"/>
    <line x1="200" y1="80" x2="200" y2="280"/>
  </g>
  <text x="140" y="186" text-anchor="middle" font-size="18" font-weight="700" fill="#991b1b">d &#215; k</text>
  <text x="140" y="298" text-anchor="middle" font-size="10" fill="#64748b">4096 &#215; 4096</text>
  <text x="140" y="318" text-anchor="middle" font-size="12" font-weight="700" fill="#dc2626">16M params</text>

  <text x="280" y="186" text-anchor="middle" font-size="24" font-weight="700" fill="#475569">&#8594;</text>
  <text x="280" y="210" text-anchor="middle" font-size="11" fill="#16a34a" font-weight="600">LoRA</text>

  <text x="360" y="68" text-anchor="middle" font-size="13" font-weight="700" fill="#ea580c">B</text>
  <rect x="330" y="80" width="60" height="200" rx="4" fill="#fff7ed" stroke="#ea580c" stroke-width="2" filter="url(#sh)"/>
  <text x="360" y="180" text-anchor="middle" font-size="12" font-weight="700" fill="#c2410c">d&#215;r</text>

  <text x="415" y="186" text-anchor="middle" font-size="20" font-weight="700" fill="#475569">&#215;</text>

  <text x="520" y="68" text-anchor="middle" font-size="13" font-weight="700" fill="#ea580c">A</text>
  <rect x="440" y="80" width="160" height="48" rx="4" fill="#fff7ed" stroke="#ea580c" stroke-width="2" filter="url(#sh)"/>
  <text x="520" y="110" text-anchor="middle" font-size="12" font-weight="700" fill="#c2410c">r &#215; k</text>

  <rect x="640" y="78" width="200" height="230" rx="14" fill="#f0fdf4" stroke="#16a34a" stroke-width="2" filter="url(#sh)"/>
  <text x="740" y="108" text-anchor="middle" font-size="14" font-weight="700" fill="#15803d">LoRA Total</text>
  <text x="740" y="140" text-anchor="middle" font-size="12" fill="#475569">B params + A params</text>
  <line x1="670" y1="150" x2="810" y2="150" stroke="#16a34a" stroke-width="1"/>
  <text x="740" y="192" text-anchor="middle" font-size="16" font-weight="800" fill="#16a34a">131,072</text>
  <text x="740" y="212" text-anchor="middle" font-size="11" fill="#16a34a">trainable params</text>
  <rect x="670" y="228" width="140" height="35" rx="8" fill="#dcfce7" stroke="#16a34a" stroke-width="1.5"/>
  <text x="740" y="250" text-anchor="middle" font-size="15" font-weight="800" fill="#15803d">128&#215; fewer</text>
  <text x="740" y="285" text-anchor="middle" font-size="10" fill="#475569">Full: 16.8M params</text>
  <text x="740" y="300" text-anchor="middle" font-size="10" fill="#16a34a" font-weight="600">LoRA: 131K params</text>
</svg>