<svg xmlns="http://www.w3.org/2000/svg" viewBox="0 0 900 480" font-family="Segoe UI,system-ui,sans-serif">
  <defs>
    <filter id="sh" x="-3%" y="-3%" width="108%" height="108%"><feDropShadow dx="1" dy="2" stdDeviation="2" flood-opacity="0.1"/></filter>
    <marker id="arr" markerWidth="8" markerHeight="6" refX="7" refY="3" orient="auto"><polygon points="0 0,8 3,0 6" fill="#64748b"/></marker>
  </defs>
  <rect width="900" height="480" rx="16" fill="#fafbff" stroke="#e2e8f0" stroke-width="1.5"/>
  <text x="450" y="34" text-anchor="middle" font-size="19" font-weight="700" fill="#1e293b">Parameter-Efficient Fine-Tuning (PEFT) Taxonomy</text>

  <rect x="340" y="55" width="220" height="40" rx="20" fill="#6366f1" filter="url(#sh)"/>
  <text x="450" y="80" text-anchor="middle" font-size="14" font-weight="700" fill="white">PEFT Methods</text>

  <line x1="350" y1="95" x2="130" y2="135" stroke="#94a3b8" stroke-width="1.8" marker-end="url(#arr)"/>
  <line x1="420" y1="95" x2="370" y2="135" stroke="#94a3b8" stroke-width="1.8" marker-end="url(#arr)"/>
  <line x1="480" y1="95" x2="570" y2="135" stroke="#94a3b8" stroke-width="1.8" marker-end="url(#arr)"/>
  <line x1="540" y1="95" x2="780" y2="135" stroke="#94a3b8" stroke-width="1.8" marker-end="url(#arr)"/>

  <rect x="30" y="138" width="190" height="36" rx="8" fill="#dbeafe" stroke="#3b82f6" stroke-width="2" filter="url(#sh)"/>
  <text x="125" y="161" text-anchor="middle" font-size="12" font-weight="700" fill="#1d4ed8">Adapter Methods</text>
  <rect x="20" y="188" width="100" height="28" rx="6" fill="#eff6ff" stroke="#93c5fd" stroke-width="1"/>
  <text x="70" y="207" text-anchor="middle" font-size="9" fill="#1d4ed8">Serial Adapters</text>
  <rect x="128" y="188" width="100" height="28" rx="6" fill="#eff6ff" stroke="#93c5fd" stroke-width="1"/>
  <text x="178" y="207" text-anchor="middle" font-size="9" fill="#1d4ed8">Parallel Adapters</text>

  <rect x="260" y="138" width="190" height="36" rx="8" fill="#fce7f3" stroke="#db2777" stroke-width="2" filter="url(#sh)"/>
  <text x="355" y="161" text-anchor="middle" font-size="12" font-weight="700" fill="#be185d">Prompt-Based</text>
  <rect x="248" y="188" width="85" height="28" rx="6" fill="#fdf2f8" stroke="#f9a8d4" stroke-width="1"/>
  <text x="290" y="207" text-anchor="middle" font-size="9" fill="#be185d">Prefix Tuning</text>
  <rect x="340" y="188" width="85" height="28" rx="6" fill="#fdf2f8" stroke="#f9a8d4" stroke-width="1"/>
  <text x="382" y="207" text-anchor="middle" font-size="9" fill="#be185d">Prompt Tuning</text>
  <rect x="290" y="224" width="85" height="28" rx="6" fill="#fdf2f8" stroke="#f9a8d4" stroke-width="1"/>
  <text x="332" y="243" text-anchor="middle" font-size="9" fill="#be185d">P-Tuning v2</text>

  <rect x="470" y="138" width="210" height="36" rx="8" fill="#ea580c" filter="url(#sh)"/>
  <text x="575" y="161" text-anchor="middle" font-size="12" font-weight="700" fill="white">Reparameterization / LoRA</text>

  <rect x="468" y="190" width="80" height="30" rx="6" fill="#fff7ed" stroke="#ea580c" stroke-width="2" filter="url(#sh)"/>
  <text x="508" y="210" text-anchor="middle" font-size="10" font-weight="700" fill="#c2410c">LoRA</text>
  <rect x="556" y="190" width="60" height="30" rx="6" fill="#fff7ed" stroke="#f97316" stroke-width="1.5"/>
  <text x="586" y="210" text-anchor="middle" font-size="9" font-weight="600" fill="#c2410c">QLoRA</text>
  <rect x="624" y="190" width="60" height="30" rx="6" fill="#fff7ed" stroke="#f97316" stroke-width="1.5"/>
  <text x="654" y="210" text-anchor="middle" font-size="9" font-weight="600" fill="#c2410c">DoRA</text>
  <rect x="468" y="230" width="62" height="26" rx="5" fill="#fed7aa" stroke="#fdba74" stroke-width="1"/>
  <text x="499" y="248" text-anchor="middle" font-size="8" fill="#c2410c">AdaLoRA</text>
  <rect x="536" y="230" width="52" height="26" rx="5" fill="#fed7aa" stroke="#fdba74" stroke-width="1"/>
  <text x="562" y="248" text-anchor="middle" font-size="8" fill="#c2410c">LoRA+</text>
  <rect x="594" y="230" width="52" height="26" rx="5" fill="#fed7aa" stroke="#fdba74" stroke-width="1"/>
  <text x="620" y="248" text-anchor="middle" font-size="8" fill="#c2410c">PiSSA</text>
  <rect x="652" y="230" width="52" height="26" rx="5" fill="#fed7aa" stroke="#fdba74" stroke-width="1"/>
  <text x="678" y="248" text-anchor="middle" font-size="8" fill="#c2410c">OLoRA</text>
  <rect x="468" y="264" width="58" height="26" rx="5" fill="#fef3c7" stroke="#fbbf24" stroke-width="1"/>
  <text x="497" y="282" text-anchor="middle" font-size="8" fill="#92400e">rsLoRA</text>
  <rect x="532" y="264" width="62" height="26" rx="5" fill="#fef3c7" stroke="#fbbf24" stroke-width="1"/>
  <text x="563" y="282" text-anchor="middle" font-size="8" fill="#92400e">O-LoRA</text>
  <rect x="600" y="264" width="66" height="26" rx="5" fill="#fef3c7" stroke="#fbbf24" stroke-width="1"/>
  <text x="633" y="282" text-anchor="middle" font-size="8" fill="#92400e">LongLoRA</text>
  <rect x="672" y="264" width="56" height="26" rx="5" fill="#fef3c7" stroke="#fbbf24" stroke-width="1"/>
  <text x="700" y="282" text-anchor="middle" font-size="8" fill="#92400e">S-LoRA</text>

  <rect x="710" y="138" width="170" height="36" rx="8" fill="#d1fae5" stroke="#16a34a" stroke-width="2" filter="url(#sh)"/>
  <text x="795" y="161" text-anchor="middle" font-size="12" font-weight="700" fill="#15803d">Selective</text>
  <rect x="715" y="188" width="70" height="28" rx="6" fill="#f0fdf4" stroke="#86efac" stroke-width="1"/>
  <text x="750" y="207" text-anchor="middle" font-size="9" fill="#15803d">BitFit</text>
  <rect x="792" y="188" width="70" height="28" rx="6" fill="#f0fdf4" stroke="#86efac" stroke-width="1"/>
  <text x="827" y="207" text-anchor="middle" font-size="9" fill="#15803d">IA3</text>

  <rect x="25" y="320" width="200" height="140" rx="10" fill="white" stroke="#3b82f6" stroke-width="1.5" filter="url(#sh)"/>
  <text x="125" y="345" text-anchor="middle" font-size="11" font-weight="700" fill="#1d4ed8">Adapter Methods</text>
  <text x="125" y="365" text-anchor="middle" font-size="9" fill="#475569">Insert small MLPs</text>
  <text x="125" y="380" text-anchor="middle" font-size="9" fill="#475569">0.5-3% extra params</text>
  <text x="125" y="395" text-anchor="middle" font-size="9" fill="#dc2626">Adds inference latency</text>
  <text x="125" y="410" text-anchor="middle" font-size="9" fill="#475569">Sequential or parallel</text>
  <text x="125" y="432" text-anchor="middle" font-size="10" fill="#3b82f6">Houlsby 2019, He 2022</text>

  <rect x="240" y="320" width="200" height="140" rx="10" fill="white" stroke="#db2777" stroke-width="1.5" filter="url(#sh)"/>
  <text x="340" y="345" text-anchor="middle" font-size="11" font-weight="700" fill="#be185d">Prompt-Based</text>
  <text x="340" y="365" text-anchor="middle" font-size="9" fill="#475569">Prepend learnable tokens</text>
  <text x="340" y="380" text-anchor="middle" font-size="9" fill="#475569">0.01-0.1% extra params</text>
  <text x="340" y="395" text-anchor="middle" font-size="9" fill="#dc2626">Slight inference overhead</text>
  <text x="340" y="410" text-anchor="middle" font-size="9" fill="#475569">Input or every layer</text>
  <text x="340" y="432" text-anchor="middle" font-size="10" fill="#db2777">Li &amp; Liang 2021</text>

  <rect x="455" y="320" width="220" height="140" rx="10" fill="white" stroke="#ea580c" stroke-width="2.5" filter="url(#sh)"/>
  <text x="565" y="345" text-anchor="middle" font-size="11" font-weight="700" fill="#c2410c">Reparameterization (LoRA)</text>
  <text x="565" y="365" text-anchor="middle" font-size="9" fill="#475569">Low-rank weight updates</text>
  <text x="565" y="380" text-anchor="middle" font-size="9" fill="#475569">0.01-1% extra params</text>
  <text x="565" y="395" text-anchor="middle" font-size="9" fill="#16a34a" font-weight="600">ZERO inference latency</text>
  <text x="565" y="410" text-anchor="middle" font-size="9" fill="#475569">Mergeable, composable</text>
  <text x="565" y="432" text-anchor="middle" font-size="10" fill="#ea580c">Hu et al. 2021</text>
  <text x="565" y="450" text-anchor="middle" font-size="9" font-weight="700" fill="#ea580c">THIS BLOG FOCUS</text>

  <rect x="690" y="320" width="190" height="140" rx="10" fill="white" stroke="#16a34a" stroke-width="1.5" filter="url(#sh)"/>
  <text x="785" y="345" text-anchor="middle" font-size="11" font-weight="700" fill="#15803d">Selective</text>
  <text x="785" y="365" text-anchor="middle" font-size="9" fill="#475569">Train subset of params</text>
  <text x="785" y="380" text-anchor="middle" font-size="9" fill="#475569">0.01-0.05% extra params</text>
  <text x="785" y="395" text-anchor="middle" font-size="9" fill="#16a34a">Zero inference latency</text>
  <text x="785" y="410" text-anchor="middle" font-size="9" fill="#475569">Biases or mask-selected</text>
  <text x="785" y="432" text-anchor="middle" font-size="10" fill="#16a34a">Zaken 2022, Liu 2022</text>
</svg>