<svg xmlns="http://www.w3.org/2000/svg" viewBox="0 0 900 340" font-family="Segoe UI,system-ui,sans-serif">
  <defs>
    <filter id="sh" x="-3%" y="-3%" width="108%" height="108%"><feDropShadow dx="1" dy="2" stdDeviation="2" flood-opacity="0.1"/></filter>
    <marker id="arr4" markerWidth="8" markerHeight="6" refX="7" refY="3" orient="auto"><polygon points="0 0,8 3,0 6" fill="#64748b"/></marker>
  </defs>
  <rect width="900" height="340" rx="16" fill="#fafbff" stroke="#e2e8f0" stroke-width="1.5"/>
  <text x="450" y="32" text-anchor="middle" font-size="18" font-weight="700" fill="#1e293b">Complete LoRA Training Pipeline</text>

  <rect x="20" y="60" width="130" height="120" rx="10" fill="white" stroke="#3b82f6" stroke-width="2" filter="url(#sh)"/>
  <circle cx="85" cy="90" r="16" fill="#dbeafe" stroke="#3b82f6" stroke-width="1.5"/>
  <text x="85" y="95" text-anchor="middle" font-size="12" font-weight="700" fill="#1d4ed8">1</text>
  <text x="85" y="118" text-anchor="middle" font-size="10" font-weight="700" fill="#1d4ed8">Load Base</text>
  <text x="85" y="133" text-anchor="middle" font-size="10" font-weight="700" fill="#1d4ed8">Model</text>
  <text x="85" y="155" text-anchor="middle" font-size="8" fill="#64748b">FP16 / 4-bit</text>
  <line x1="150" y1="120" x2="168" y2="120" stroke="#475569" stroke-width="1.8" marker-end="url(#arr4)"/>

  <rect x="175" y="60" width="130" height="120" rx="10" fill="white" stroke="#ea580c" stroke-width="2" filter="url(#sh)"/>
  <circle cx="240" cy="90" r="16" fill="#fff7ed" stroke="#ea580c" stroke-width="1.5"/>
  <text x="240" y="95" text-anchor="middle" font-size="12" font-weight="700" fill="#c2410c">2</text>
  <text x="240" y="118" text-anchor="middle" font-size="10" font-weight="700" fill="#c2410c">Configure</text>
  <text x="240" y="133" text-anchor="middle" font-size="10" font-weight="700" fill="#c2410c">LoRA</text>
  <text x="240" y="152" text-anchor="middle" font-size="8" fill="#64748b">r=16, &#945;=32</text>
  <line x1="305" y1="120" x2="323" y2="120" stroke="#475569" stroke-width="1.8" marker-end="url(#arr4)"/>

  <rect x="330" y="60" width="130" height="120" rx="10" fill="white" stroke="#16a34a" stroke-width="2" filter="url(#sh)"/>
  <circle cx="395" cy="90" r="16" fill="#dcfce7" stroke="#16a34a" stroke-width="1.5"/>
  <text x="395" y="95" text-anchor="middle" font-size="12" font-weight="700" fill="#15803d">3</text>
  <text x="395" y="118" text-anchor="middle" font-size="10" font-weight="700" fill="#16a34a">Prepare</text>
  <text x="395" y="133" text-anchor="middle" font-size="10" font-weight="700" fill="#16a34a">Data</text>
  <text x="395" y="152" text-anchor="middle" font-size="8" fill="#64748b">Tokenize</text>
  <line x1="460" y1="120" x2="478" y2="120" stroke="#475569" stroke-width="1.8" marker-end="url(#arr4)"/>

  <rect x="485" y="55" width="145" height="130" rx="10" fill="white" stroke="#7c3aed" stroke-width="2.5" filter="url(#sh)"/>
  <circle cx="557" cy="85" r="16" fill="#ede9fe" stroke="#7c3aed" stroke-width="1.5"/>
  <text x="557" y="90" text-anchor="middle" font-size="12" font-weight="700" fill="#6d28d9">4</text>
  <text x="557" y="113" text-anchor="middle" font-size="10" font-weight="700" fill="#6d28d9">Train</text>
  <text x="557" y="130" text-anchor="middle" font-size="8" fill="#64748b">LR=2e-4, cosine</text>
  <text x="557" y="141" text-anchor="middle" font-size="8" fill="#64748b">bf16, grad_ckpt</text>
  <text x="557" y="163" text-anchor="middle" font-size="8" fill="#7c3aed" font-weight="600">Only B,A trained!</text>
  <line x1="630" y1="120" x2="648" y2="120" stroke="#475569" stroke-width="1.8" marker-end="url(#arr4)"/>

  <rect x="655" y="60" width="115" height="120" rx="10" fill="white" stroke="#f59e0b" stroke-width="2" filter="url(#sh)"/>
  <circle cx="712" cy="90" r="16" fill="#fef3c7" stroke="#f59e0b" stroke-width="1.5"/>
  <text x="712" y="95" text-anchor="middle" font-size="12" font-weight="700" fill="#b45309">5</text>
  <text x="712" y="118" text-anchor="middle" font-size="10" font-weight="700" fill="#b45309">Save</text>
  <text x="712" y="133" text-anchor="middle" font-size="10" font-weight="700" fill="#b45309">Adapter</text>
  <text x="712" y="152" text-anchor="middle" font-size="8" fill="#64748b">Only ~10-50 MB!</text>
  <line x1="770" y1="120" x2="788" y2="120" stroke="#475569" stroke-width="1.8" marker-end="url(#arr4)"/>

  <rect x="795" y="60" width="85" height="120" rx="10" fill="#dcfce7" stroke="#16a34a" stroke-width="2.5" filter="url(#sh)"/>
  <circle cx="837" cy="90" r="16" fill="#f0fdf4" stroke="#16a34a" stroke-width="1.5"/>
  <text x="837" y="95" text-anchor="middle" font-size="12" font-weight="700" fill="#15803d">6</text>
  <text x="837" y="118" text-anchor="middle" font-size="10" font-weight="700" fill="#15803d">Deploy</text>
  <text x="837" y="140" text-anchor="middle" font-size="8" fill="#64748b">Merge or</text>
  <text x="837" y="151" text-anchor="middle" font-size="8" fill="#64748b">serve with</text>
  <text x="837" y="162" text-anchor="middle" font-size="8" fill="#64748b">vLLM/TGI</text>

  <rect x="20" y="210" width="860" height="110" rx="12" fill="#f8fafc" stroke="#e2e8f0" stroke-width="1"/>
  <text x="450" y="235" text-anchor="middle" font-size="13" font-weight="700" fill="#1e293b">Deploy Options</text>

  <rect x="45" y="250" width="180" height="55" rx="8" fill="white" stroke="#3b82f6" stroke-width="1.5" filter="url(#sh)"/>
  <text x="135" y="272" text-anchor="middle" font-size="10" font-weight="700" fill="#1d4ed8">Merge &amp; Export</text>
  <text x="135" y="290" text-anchor="middle" font-size="9" fill="#3b82f6">merge_and_unload()</text>

  <rect x="245" y="250" width="170" height="55" rx="8" fill="white" stroke="#7c3aed" stroke-width="1.5" filter="url(#sh)"/>
  <text x="330" y="272" text-anchor="middle" font-size="10" font-weight="700" fill="#6d28d9">Serve with vLLM</text>
  <text x="330" y="290" text-anchor="middle" font-size="9" fill="#7c3aed">adapter stacking</text>

  <rect x="435" y="250" width="130" height="55" rx="8" fill="white" stroke="#f59e0b" stroke-width="1.5" filter="url(#sh)"/>
  <text x="500" y="272" text-anchor="middle" font-size="10" font-weight="700" fill="#b45309">Convert to GGUF</text>
  <text x="500" y="290" text-anchor="middle" font-size="9" fill="#f59e0b">llama.cpp</text>

  <rect x="585" y="250" width="150" height="55" rx="8" fill="white" stroke="#16a34a" stroke-width="1.5" filter="url(#sh)"/>
  <text x="660" y="272" text-anchor="middle" font-size="10" font-weight="700" fill="#15803d">Upload to Hub</text>
  <text x="660" y="290" text-anchor="middle" font-size="9" fill="#16a34a">share adapters</text>

  <rect x="755" y="250" width="105" height="55" rx="8" fill="#f0fdf4" stroke="#16a34a" stroke-width="1"/>
  <text x="807" y="272" text-anchor="middle" font-size="9" font-weight="600" fill="#15803d">+ TGI, SGLang</text>
  <text x="807" y="290" text-anchor="middle" font-size="8" fill="#64748b">etc.</text>
</svg>