<svg xmlns="http://www.w3.org/2000/svg" viewBox="0 0 850 450" font-family="Segoe UI,system-ui,sans-serif">
  <defs>
    <filter id="sh" x="-3%" y="-3%" width="108%" height="108%"><feDropShadow dx="1" dy="2" stdDeviation="2" flood-opacity="0.1"/></filter>
    <marker id="arr" markerWidth="8" markerHeight="6" refX="7" refY="3" orient="auto"><polygon points="0 0,8 3,0 6" fill="#64748b"/></marker>
  </defs>
  <rect width="850" height="450" rx="16" fill="#fafbff" stroke="#e2e8f0" stroke-width="1.5"/>
  <text x="425" y="32" text-anchor="middle" font-size="18" font-weight="700" fill="#1e293b">LoRA Variant Selection Flowchart</text>

  <rect x="335" y="55" width="180" height="45" rx="20" fill="#6366f1" filter="url(#sh)"/>
  <text x="425" y="82" text-anchor="middle" font-size="13" font-weight="700" fill="white">Need PEFT?</text>

  <line x1="425" y1="100" x2="425" y2="128" stroke="#94a3b8" stroke-width="1.8" marker-end="url(#arr)"/>
  <text x="440" y="118" text-anchor="start" font-size="9" fill="#16a34a">Yes</text>

  <rect x="315" y="130" width="220" height="45" rx="12" fill="#f0fdf4" stroke="#16a34a" stroke-width="2"/>
  <text x="425" y="157" text-anchor="middle" font-size="12" font-weight="700" fill="#15803d">Memory constrained?</text>

  <line x1="310" y1="152" x2="200" y2="180" stroke="#94a3b8" stroke-width="1.5" marker-end="url(#arr)"/>
  <text x="245" y="165" text-anchor="middle" font-size="9" fill="#ea580c">Yes</text>
  <rect x="80" y="185" width="170" height="40" rx="10" fill="#fff7ed" stroke="#ea580c" stroke-width="2"/>
  <text x="165" y="210" text-anchor="middle" font-size="11" font-weight="700" fill="#c2410c">QLoRA</text>

  <line x1="540" y1="152" x2="640" y2="180" stroke="#94a3b8" stroke-width="1.5" marker-end="url(#arr)"/>
  <text x="585" y="165" text-anchor="middle" font-size="9" fill="#16a34a">No</text>

  <rect x="550" y="185" width="180" height="45" rx="10" fill="#f0fdf4" stroke="#16a34a" stroke-width="2"/>
  <text x="640" y="207" text-anchor="middle" font-size="11" font-weight="700" fill="#15803d">Task complexity?</text>

  <line x1="600" y1="230" x2="560" y2="265" stroke="#94a3b8" stroke-width="1.5" marker-end="url(#arr)"/>
  <rect x="440" y="268" width="140" height="35" rx="8" fill="#dbeafe" stroke="#3b82f6" stroke-width="1.5"/>
  <text x="510" y="290" text-anchor="middle" font-size="10" font-weight="600" fill="#1d4ed8">Simple: r=4-8</text>

  <line x1="680" y1="230" x2="720" y2="265" stroke="#94a3b8" stroke-width="1.5" marker-end="url(#arr)"/>
  <rect x="660" y="268" width="130" height="35" rx="8" fill="#ede9fe" stroke="#7c3aed" stroke-width="1.5"/>
  <text x="725" y="290" text-anchor="middle" font-size="10" font-weight="600" fill="#6d28d9">Complex: r=16-64</text>

  <rect x="50" y="340" width="165" height="40" rx="8" fill="#fce7f3" stroke="#db2777" stroke-width="1.5"/>
  <text x="132" y="365" text-anchor="middle" font-size="10" font-weight="600" fill="#be185d">Multiple tasks?</text>
  <text x="132" y="378" text-anchor="middle" font-size="9" fill="#db2777">LoRAHub / S-LoRA</text>

  <rect x="240" y="340" width="130" height="40" rx="8" fill="#fef3c7" stroke="#f59e0b" stroke-width="1.5"/>
  <text x="305" y="365" text-anchor="middle" font-size="10" font-weight="600" fill="#b45309">Long context?</text>
  <text x="305" y="378" text-anchor="middle" font-size="9" fill="#f59e0b">LongLoRA</text>

  <rect x="395" y="340" width="130" height="40" rx="8" fill="#d1fae5" stroke="#16a34a" stroke-width="1.5"/>
  <text x="460" y="365" text-anchor="middle" font-size="10" font-weight="600" fill="#15803d">Continual learning?</text>
  <text x="460" y="378" text-anchor="middle" font-size="9" fill="#16a34a">O-LoRA</text>
</svg>