<svg xmlns="http://www.w3.org/2000/svg" viewBox="0 0 900 380" font-family="Segoe UI,system-ui,sans-serif">
  <defs>
    <filter id="sh" x="-3%" y="-3%" width="108%" height="108%"><feDropShadow dx="1" dy="2" stdDeviation="2" flood-opacity="0.1"/></filter>
    <marker id="arr" markerWidth="8" markerHeight="6" refX="7" refY="3" orient="auto"><polygon points="0 0,8 3,0 6" fill="#64748b"/></marker>
  </defs>
  <rect width="900" height="380" rx="16" fill="#fafbff" stroke="#e2e8f0" stroke-width="1.5"/>
  <text x="450" y="32" text-anchor="middle" font-size="18" font-weight="700" fill="#1e293b">LoRA Merge, Unmerge &amp; Task Switching</text>

  <rect x="20" y="60" width="180" height="110" rx="10" fill="white" stroke="#3b82f6" stroke-width="2" filter="url(#sh)"/>
  <text x="110" y="82" text-anchor="middle" font-size="11" font-weight="700" fill="#1d4ed8">After Training</text>
  <rect x="35" y="92" width="65" height="30" rx="5" fill="#dbeafe" stroke="#3b82f6" stroke-width="1.5"/>
  <text x="67" y="112" text-anchor="middle" font-size="10" font-weight="600" fill="#1d4ed8">W&#8320;</text>
  <text x="115" y="112" text-anchor="middle" font-size="14" font-weight="700" fill="#475569">+</text>
  <rect x="130" y="92" width="55" height="30" rx="5" fill="#fed7aa" stroke="#ea580c" stroke-width="1.5"/>
  <text x="157" y="112" text-anchor="middle" font-size="9" font-weight="600" fill="#c2410c">BA&#8321;</text>
  <text x="110" y="155" text-anchor="middle" font-size="9" fill="#64748b">2 separate matrices</text>

  <line x1="200" y1="115" x2="250" y2="115" stroke="#16a34a" stroke-width="2.5" marker-end="url(#arr)"/>
  <text x="225" y="105" text-anchor="middle" font-size="9" font-weight="700" fill="#16a34a">MERGE</text>

  <rect x="258" y="60" width="160" height="110" rx="10" fill="white" stroke="#16a34a" stroke-width="2.5" filter="url(#sh)"/>
  <text x="338" y="82" text-anchor="middle" font-size="11" font-weight="700" fill="#15803d">Merged Model</text>
  <rect x="283" y="92" width="110" height="35" rx="6" fill="#dcfce7" stroke="#16a34a" stroke-width="2"/>
  <text x="338" y="115" text-anchor="middle" font-size="12" font-weight="700" fill="#15803d">W_merged</text>
  <text x="338" y="148" text-anchor="middle" font-size="9" fill="#16a34a" font-weight="600">Zero latency overhead</text>

  <line x1="418" y1="100" x2="468" y2="80" stroke="#dc2626" stroke-width="2" marker-end="url(#arr)"/>
  <text x="462" y="72" text-anchor="middle" font-size="9" font-weight="700" fill="#dc2626">UNMERGE</text>

  <rect x="475" y="55" width="160" height="60" rx="10" fill="white" stroke="#94a3b8" stroke-width="1.5" filter="url(#sh)"/>
  <text x="555" y="78" text-anchor="middle" font-size="11" font-weight="700" fill="#475569">Recovered Base</text>
  <rect x="505" y="87" width="100" height="22" rx="5" fill="#dbeafe" stroke="#3b82f6" stroke-width="1.5"/>
  <text x="555" y="103" text-anchor="middle" font-size="10" font-weight="600" fill="#1d4ed8">W&#8320; (exact)</text>

  <line x1="635" y1="85" x2="685" y2="85" stroke="#7c3aed" stroke-width="2.5" marker-end="url(#arr)"/>
  <text x="660" y="75" text-anchor="middle" font-size="8" font-weight="700" fill="#7c3aed">+ new adapter</text>

  <rect x="693" y="55" width="185" height="75" rx="10" fill="white" stroke="#7c3aed" stroke-width="2" filter="url(#sh)"/>
  <text x="785" y="78" text-anchor="middle" font-size="11" font-weight="700" fill="#6d28d9">Task 2 Model</text>
  <rect x="708" y="88" width="55" height="25" rx="5" fill="#dbeafe" stroke="#3b82f6" stroke-width="1.5"/>
  <text x="735" y="106" text-anchor="middle" font-size="9" font-weight="600" fill="#1d4ed8">W&#8320;</text>
  <text x="775" y="106" text-anchor="middle" font-size="12" font-weight="700" fill="#475569">+</text>
  <rect x="790" y="88" width="75" height="25" rx="5" fill="#ede9fe" stroke="#7c3aed" stroke-width="1.5"/>
  <text x="827" y="106" text-anchor="middle" font-size="9" font-weight="600" fill="#6d28d9">BA&#8322;</text>

  <rect x="30" y="200" width="840" height="160" rx="12" fill="#f8fafc" stroke="#e2e8f0" stroke-width="1"/>
  <text x="450" y="225" text-anchor="middle" font-size="13" font-weight="700" fill="#1e293b">Multi-Task Serving Flow</text>

  <rect x="60" y="245" width="140" height="45" rx="8" fill="#dbeafe" stroke="#3b82f6" stroke-width="2" filter="url(#sh)"/>
  <text x="130" y="265" text-anchor="middle" font-size="12" font-weight="700" fill="#1d4ed8">W&#8320; (14 GB)</text>
  <text x="130" y="282" text-anchor="middle" font-size="9" fill="#3b82f6">Stored ONCE on GPU</text>

  <text x="280" y="255" text-anchor="middle" font-size="10" font-weight="600" fill="#475569">Swap adapters:</text>
  <rect x="240" y="268" width="80" height="28" rx="6" fill="#fed7aa" stroke="#ea580c" stroke-width="1.5"/>
  <text x="280" y="287" text-anchor="middle" font-size="9" font-weight="600" fill="#c2410c">Code (8MB)</text>
  <rect x="330" y="268" width="80" height="28" rx="6" fill="#bfdbfe" stroke="#3b82f6" stroke-width="1.5"/>
  <text x="370" y="287" text-anchor="middle" font-size="9" font-weight="600" fill="#1d4ed8">Chat (12MB)</text>
  <rect x="420" y="268" width="82" height="28" rx="6" fill="#fbcfe8" stroke="#db2777" stroke-width="1.5"/>
  <text x="461" y="287" text-anchor="middle" font-size="9" font-weight="600" fill="#be185d">Medical (6MB)</text>
  <rect x="512" y="268" width="78" height="28" rx="6" fill="#d1fae5" stroke="#16a34a" stroke-width="1.5"/>
  <text x="551" y="287" text-anchor="middle" font-size="9" font-weight="600" fill="#15803d">Legal (10MB)</text>
  <rect x="600" y="268" width="68" height="28" rx="6" fill="#fef3c7" stroke="#f59e0b" stroke-width="1.5"/>
  <text x="634" y="287" text-anchor="middle" font-size="9" font-weight="600" fill="#b45309">Math (7MB)</text>

  <rect x="720" y="248" width="140" height="55" rx="8" fill="#dcfce7" stroke="#16a34a" stroke-width="2"/>
  <text x="790" y="270" text-anchor="middle" font-size="11" font-weight="700" fill="#15803d">100 tasks?</text>
  <text x="790" y="290" text-anchor="middle" font-size="10" fill="#16a34a">14 GB + 100&#215;10 MB</text>
  <text x="790" y="305" text-anchor="middle" font-size="9" fill="#64748b">vs 100&#215;14 GB full FT</text>
</svg>